<svg id="visual" viewBox="0 0 2560 600" width="2560" height="600" xmlns="http://www.w3.org/2000/svg" xmlns:xlink="http://www.w3.org/1999/xlink" version="1.1"><path d="M0 73L85.3 61.7C170.7 50.3 341.3 27.7 512 34.7C682.7 41.7 853.3 78.3 1024 79C1194.7 79.7 1365.3 44.3 1536 37.7C1706.7 31 1877.3 53 2048 71.2C2218.7 89.3 2389.3 103.7 2474.7 110.8L2560 118L2560 0L2474.7 0C2389.3 0 2218.7 0 2048 0C1877.3 0 1706.7 0 1536 0C1365.3 0 1194.7 0 1024 0C853.3 0 682.7 0 512 0C341.3 0 170.7 0 85.3 0L0 0Z" fill="#170028" stroke-linecap="round" stroke-linejoin="miter"></path></svg>