<svg id="visual" viewBox="0 0 2560 600" width="2560" height="600" xmlns="http://www.w3.org/2000/svg" xmlns:xlink="http://www.w3.org/1999/xlink" version="1.1"><path d="M0 25L85.3 26.7C170.7 28.3 341.3 31.7 512 47.2C682.7 62.7 853.3 90.3 1024 91C1194.7 91.7 1365.3 65.3 1536 61.2C1706.7 57 1877.3 75 2048 76.2C2218.7 77.3 2389.3 61.7 2474.7 53.8L2560 46L2560 0L2474.7 0C2389.3 0 2218.7 0 2048 0C1877.3 0 1706.7 0 1536 0C1365.3 0 1194.7 0 1024 0C853.3 0 682.7 0 512 0C341.3 0 170.7 0 85.3 0L0 0Z" fill="#132C56" stroke-linecap="round" stroke-linejoin="miter"></path></svg>